<?xml version="1.0" standalone="no"?>




<svg width="940" height="400"  viewBox="0 0 940 400" preserveAspectRatio="xMidYMid meet" xmlns="http://www.w3.org/2000/svg">
  <defs>
    <filter id="dropShadow" color-interpolation-filters="sRGB">
      <feDropShadow dx="5" dy="5" stdDeviation="5" flood-color = "#000" flood-opacity="0.12"/>
    </filter>
    <defs>
        <style>
            svg {
              font-family: -apple-system, system-ui, BlinkMacSystemFont, "Segoe UI", Roboto;
            }
        </style>
    </defs>
  </defs>
  
  
  
  <text x="45" y="50" dominant-baseline="middle" text-anchor="end" font-size="12" fill="#E6FCFB" font-weight="bold" >0.00m</text>
  <text x="895" y="50" dominant-baseline="middle" text-anchor="start" font-size="12" fill="#E9FEE7" font-weight="bold" >210bar</text>
  <text x="50" y="360" dominant-baseline="hanging" text-anchor="middle" font-size="12" fill="#74838f" font-weight="bold" >0:00</text>
  <path stroke="#74838f99" stroke-width="1.0"  d="M 50 350 L 50 360" />
  
  <path stroke="#74838f99" stroke-dasharray="10 6" stroke-width="0.5"  d="M 50 50 L 890 50" />
  
  
  
  
  <text x="45" y="110" dominant-baseline="middle" text-anchor="end" font-size="12" fill="#E6FCFB" font-weight="bold" >8.00m</text>
  <text x="895" y="110" dominant-baseline="middle" text-anchor="start" font-size="12" fill="#E9FEE7" font-weight="bold" >168bar</text>
  <text x="218" y="360" dominant-baseline="hanging" text-anchor="middle" font-size="12" fill="#74838f" font-weight="bold" >0:12</text>
  <path stroke="#74838f99" stroke-width="1.0"  d="M 218 350 L 218 360" />
  
  <path stroke="#74838f99" stroke-dasharray="10 6" stroke-width="0.5"  d="M 50 110 L 890 110" />
  
  
  
  
  <text x="45" y="170" dominant-baseline="middle" text-anchor="end" font-size="12" fill="#E6FCFB" font-weight="bold" >16.00m</text>
  <text x="895" y="170" dominant-baseline="middle" text-anchor="start" font-size="12" fill="#E9FEE7" font-weight="bold" >126bar</text>
  <text x="386" y="360" dominant-baseline="hanging" text-anchor="middle" font-size="12" fill="#74838f" font-weight="bold" >0:24</text>
  <path stroke="#74838f99" stroke-width="1.0"  d="M 386 350 L 386 360" />
  
  <path stroke="#74838f99" stroke-dasharray="10 6" stroke-width="0.5"  d="M 50 170 L 890 170" />
  
  
  
  
  <text x="45" y="230" dominant-baseline="middle" text-anchor="end" font-size="12" fill="#E6FCFB" font-weight="bold" >24.00m</text>
  <text x="895" y="230" dominant-baseline="middle" text-anchor="start" font-size="12" fill="#E9FEE7" font-weight="bold" >84bar</text>
  <text x="554" y="360" dominant-baseline="hanging" text-anchor="middle" font-size="12" fill="#74838f" font-weight="bold" >0:36</text>
  <path stroke="#74838f99" stroke-width="1.0"  d="M 554 350 L 554 360" />
  
  <path stroke="#74838f99" stroke-dasharray="10 6" stroke-width="0.5"  d="M 50 230 L 890 230" />
  
  
  
  
  <text x="45" y="290" dominant-baseline="middle" text-anchor="end" font-size="12" fill="#E6FCFB" font-weight="bold" >32.00m</text>
  <text x="895" y="290" dominant-baseline="middle" text-anchor="start" font-size="12" fill="#E9FEE7" font-weight="bold" >42bar</text>
  <text x="722" y="360" dominant-baseline="hanging" text-anchor="middle" font-size="12" fill="#74838f" font-weight="bold" >0:48</text>
  <path stroke="#74838f99" stroke-width="1.0"  d="M 722 350 L 722 360" />
  
  <path stroke="#74838f99" stroke-dasharray="10 6" stroke-width="0.5"  d="M 50 290 L 890 290" />
  
  
  
  
  <text x="45" y="350" dominant-baseline="middle" text-anchor="end" font-size="12" fill="#E6FCFB" font-weight="bold" >40.00m</text>
  <text x="895" y="350" dominant-baseline="middle" text-anchor="start" font-size="12" fill="#E9FEE7" font-weight="bold" >0bar</text>
  <text x="890" y="360" dominant-baseline="hanging" text-anchor="middle" font-size="12" fill="#74838f" font-weight="bold" >1:00</text>
  <path stroke="#74838f99" stroke-width="1.0"  d="M 890 350 L 890 360" />
  
  
  <path stroke="#74838f99" stroke-width="1.0"  d="M 50 350 L 890 350" />
  <g filter="url(#dropShadow)">
    <path stroke="#56BDB6" d="M 50 50 C 50.0767 51.6250, 50.0767 54.4125, 50.4601 59.7500C 50.8436 65.0875, 51.6105 74.7875, 52.3007 82.0250C 52.9910 89.2625, 53.8346 96.1875, 54.6015 103.1750C 55.3684 110.1625, 56.4804 120.1750, 56.9022 123.9500C 57.3240 127.7250, 56.7488 122.6625, 57.1323 125.8250C 57.5157 128.9875, 58.4744 136.7875, 59.2030 142.9250C 59.9315 149.0625, 60.7368 157.0250, 61.5037 162.6500C 62.2706 168.2750, 63.0375 174.6125, 63.8044 176.6750C 64.5714 178.7375, 65.3383 175.2000, 66.1052 175.0250C 66.8721 174.8500, 67.6390 175.3500, 68.4059 175.6250C 69.1728 175.9000, 69.9397 175.5250, 70.7067 176.6750C 71.4736 177.8250, 72.2405 180.2750, 73.0074 182.5250C 73.7743 184.7750, 74.5412 188.0250, 75.3081 190.1750C 76.0750 192.3250, 76.8420 194.2000, 77.6089 195.4250C 78.3758 196.6500, 79.1427 196.9125, 79.9096 197.5250C 80.6765 198.1375, 81.4434 198.6000, 82.2104 199.1000C 82.9773 199.6000, 83.7442 199.6875, 84.5111 200.5250C 85.2780 201.3625, 86.0449 203.0375, 86.8118 204.1250C 87.5787 205.2125, 88.3457 206.2375, 89.1126 207.0500C 89.8795 207.8625, 90.6464 208.4625, 91.4133 209.0000C 92.1802 209.5375, 92.9471 209.3000, 93.7141 210.2750C 94.4810 211.2500, 95.2479 213.4125, 96.0148 214.8500C 96.7817 216.2875, 97.5486 218.7750, 98.3155 218.9000C 99.0824 219.0250, 99.8494 215.1375, 100.6163 215.6000C 101.3832 216.0625, 102.1501 220.8000, 102.9170 221.6750C 103.6839 222.5500, 104.4508 222.0500, 105.2177 220.8500C 105.9847 219.6500, 106.7516 214.7750, 107.5185 214.4750C 108.2854 214.1750, 109.0523 217.7750, 109.8192 219.0500C 110.5861 220.3250, 111.3531 222.0375, 112.1200 222.1250C 112.8869 222.2125, 113.6538 219.7125, 114.4207 219.5750C 115.1876 219.4375, 115.9545 221.0625, 116.7214 221.3000C 117.4884 221.5375, 118.2553 221.3750, 119.0222 221.0000C 119.7891 220.6250, 120.5560 218.8250, 121.3229 219.0500C 122.0898 219.2750, 122.8568 221.8375, 123.6237 222.3500C 124.3906 222.8625, 125.1575 221.2500, 125.9244 222.1250C 126.6913 223.0000, 127.4582 225.7875, 128.2251 227.6000C 128.9921 229.4125, 129.7590 231.6500, 130.5259 233.0000C 131.2928 234.3500, 132.0597 234.4750, 132.8266 235.7000C 133.5935 236.9250, 134.3604 239.9375, 135.1274 240.3500C 135.8943 240.7625, 136.6612 239.5625, 137.4281 238.1750C 138.1950 236.7875, 138.9619 232.4250, 139.7288 232.0250C 140.4958 231.6250, 141.2627 234.0375, 142.0296 235.7750C 142.7965 237.5125, 143.5634 240.2625, 144.3303 242.4500C 145.0972 244.6375, 145.8641 247.2375, 146.6311 248.9000C 147.3980 250.5625, 148.1649 250.8250, 148.9318 252.4250C 149.6987 254.0250, 150.4656 256.4875, 151.2325 258.5000C 151.9995 260.5125, 152.7664 262.8625, 153.5333 264.5000C 154.3002 266.1375, 155.0671 267.1500, 155.8340 268.3250C 156.6009 269.5000, 157.3678 270.4125, 158.1348 271.5500C 158.9017 272.6875, 159.6686 273.7250, 160.4355 275.1500C 161.2024 276.5750, 161.9693 278.8625, 162.7362 280.1000C 163.5031 281.3375, 164.2701 281.8625, 165.0370 282.5750C 165.8039 283.2875, 166.5708 284.0500, 167.3377 284.3750C 168.1046 284.7000, 168.8715 285.0750, 169.6385 284.5250C 170.4054 283.9750, 171.1723 282.1500, 171.9392 281.0750C 172.7061 280.0000, 173.4730 278.7250, 174.2399 278.0750C 175.0068 277.4250, 175.7738 277.5250, 176.5407 277.1750C 177.3076 276.8250, 178.0745 276.1375, 178.8414 275.9750C 179.6083 275.8125, 180.3752 276.2125, 181.1422 276.2000C 181.9091 276.1875, 182.6760 275.6375, 183.4429 275.9000C 184.2098 276.1625, 184.9767 276.7500, 185.7436 277.7750C 186.5105 278.8000, 187.2775 281.8250, 188.0444 282.0500C 188.8113 282.2750, 189.5782 279.6750, 190.3451 279.1250C 191.1120 278.5750, 191.8789 279.5875, 192.6459 278.7500C 193.4128 277.9125, 194.1797 275.2500, 194.9466 274.1000C 195.7135 272.9500, 196.4804 273.1125, 197.2473 271.8500C 198.0142 270.5875, 198.7812 268.5750, 199.5481 266.5250C 200.3150 264.4750, 201.0819 261.8750, 201.8488 259.5500C 202.6157 257.2250, 203.3826 253.3625, 204.1495 252.5750C 204.9165 251.7875, 205.6834 255.2000, 206.4503 254.8250C 207.2172 254.4500, 207.9841 251.7125, 208.7510 250.3250C 209.5179 248.9375, 210.2849 247.0625, 211.0518 246.5000C 211.8187 245.9375, 212.5856 246.6375, 213.3525 246.9500C 214.1194 247.2625, 214.8863 248.6250, 215.6532 248.3750C 216.4202 248.1250, 217.1871 246.1625, 217.9540 245.4500C 218.7209 244.7375, 219.4878 243.8750, 220.2547 244.1000C 221.0216 244.3250, 221.7886 246.2875, 222.5555 246.8000C 223.3224 247.3125, 224.0893 247.9875, 224.8562 247.1750C 225.6231 246.3625, 226.3900 243.2875, 227.1569 241.9250C 227.9239 240.5625, 228.6908 238.7000, 229.4577 239.0000C 230.2246 239.3000, 230.9915 241.8375, 231.7584 243.7250C 232.5253 245.6125, 233.2922 248.6625, 234.0592 250.3250C 234.8261 251.9875, 235.5930 253.5000, 236.3599 253.7000C 237.1268 253.9000, 237.8937 252.1750, 238.6606 251.5250C 239.4276 250.8750, 240.1945 250.8125, 240.9614 249.8000C 241.7283 248.7875, 242.4952 245.8000, 243.2621 245.4500C 244.0290 245.1000, 244.7959 247.9250, 245.5629 247.7000C 246.3298 247.4750, 247.0967 244.9625, 247.8636 244.1000C 248.6305 243.2375, 249.3974 242.7875, 250.1643 242.5250C 250.9313 242.2625, 251.6982 242.9625, 252.4651 242.5250C 253.2320 242.0875, 253.9989 240.2625, 254.7658 239.9000C 255.5327 239.5375, 256.2996 240.2750, 257.0666 240.3500C 257.8335 240.4250, 258.6004 241.5750, 259.3673 240.3500C 260.1342 239.1250, 260.9011 233.1500, 261.6680 233.0000C 262.4349 232.8500, 263.2019 237.5375, 263.9688 239.4500C 264.7357 241.3625, 265.5026 243.0750, 266.2695 244.4750C 267.0364 245.8750, 267.8033 247.4000, 268.5703 247.8500C 269.3372 248.3000, 270.1041 247.2375, 270.8710 247.1750C 271.6379 247.1125, 272.4048 247.0875, 273.1717 247.4750C 273.9386 247.8625, 274.7056 248.6875, 275.4725 249.5000C 276.2394 250.3125, 277.0063 251.9125, 277.7732 252.3500C 278.5401 252.7875, 279.3070 251.9250, 280.0740 252.1250C 280.8409 252.3250, 281.6078 253.0750, 282.3747 253.5500C 283.1416 254.0250, 283.9085 254.8375, 284.6754 254.9750C 285.4423 255.1125, 286.2093 254.0875, 286.9762 254.3750C 287.7431 254.6625, 288.5100 256.5125, 289.2769 256.7000C 290.0438 256.8875, 290.8107 255.7500, 291.5776 255.5000C 292.3446 255.2500, 293.1115 255.0250, 293.8784 255.2000C 294.6453 255.3750, 295.4122 255.8125, 296.1791 256.5500C 296.9460 257.2875, 297.7130 259.1250, 298.4799 259.6250C 299.2468 260.1250, 300.0137 258.8375, 300.7806 259.5500C 301.5475 260.2625, 302.3144 263.1375, 303.0813 263.9000C 303.8483 264.6625, 304.6152 264.1000, 305.3821 264.1250C 306.1490 264.1500, 306.9159 264.4750, 307.6828 264.0500C 308.4497 263.6250, 309.2167 262.1750, 309.9836 261.5750C 310.7505 260.9750, 311.5174 261.5625, 312.2843 260.4500C 313.0512 259.3375, 313.8181 255.1750, 314.5850 254.9000C 315.3520 254.6250, 316.1189 257.5625, 316.8858 258.8000C 317.6527 260.0375, 318.4196 262.1625, 319.1865 262.3250C 319.9534 262.4875, 320.7204 260.4375, 321.4873 259.7750C 322.2542 259.1125, 323.0211 258.5250, 323.7880 258.3500C 324.5549 258.1750, 325.3218 259.2875, 326.0887 258.7250C 326.8557 258.1625, 327.6226 255.7500, 328.3895 254.9750C 329.1564 254.2000, 329.9233 254.1125, 330.6902 254.0750C 331.4571 254.0375, 332.2240 255.2500, 332.9910 254.7500C 333.7579 254.2500, 334.5248 252.7875, 335.2917 251.0750C 336.0586 249.3625, 336.8255 245.8625, 337.5924 244.4750C 338.3594 243.0875, 339.1263 243.0875, 339.8932 242.7500C 340.6601 242.4125, 341.4270 242.3250, 342.1939 242.4500C 342.9608 242.5750, 343.7277 243.5625, 344.4947 243.5000C 345.2616 243.4375, 346.0285 242.1375, 346.7954 242.0750C 347.5623 242.0125, 348.3292 242.8875, 349.0961 243.1250C 349.8631 243.3625, 350.6300 243.4625, 351.3969 243.5000C 352.1638 243.5375, 352.9307 243.3500, 353.6976 243.3500C 354.4645 243.3500, 355.2314 243.3250, 355.9984 243.5000C 356.7653 243.6750, 357.5322 244.4125, 358.2991 244.4000C 359.0660 244.3875, 359.8329 243.5125, 360.5998 243.4250C 361.3667 243.3375, 362.1337 243.7750, 362.9006 243.8750C 363.6675 243.9750, 364.4344 244.0500, 365.2013 244.0250C 365.9682 244.0000, 366.7351 243.8500, 367.5021 243.7250C 368.2690 243.6000, 369.0359 243.4000, 369.8028 243.2750C 370.5697 243.1500, 371.3366 243.1750, 372.1035 242.9750C 372.8704 242.7750, 373.6374 242.5375, 374.4043 242.0750C 375.1712 241.6125, 375.9381 240.6750, 376.7050 240.2000C 377.4719 239.7250, 378.2388 239.2625, 379.0058 239.2250C 379.7727 239.1875, 380.5396 239.8000, 381.3065 239.9750C 382.0734 240.1500, 382.8403 240.2250, 383.6072 240.2750C 384.3741 240.3250, 385.1411 240.8625, 385.9080 240.2750C 386.6749 239.6875, 387.4035 238.1000, 388.2087 236.7500C 389.0140 235.4000, 389.9343 233.1250, 390.7395 232.1750C 391.5448 231.2250, 392.2733 231.7125, 393.0403 231.0500C 393.8072 230.3875, 394.5741 228.6625, 395.3410 228.2000C 396.1079 227.7375, 396.8748 227.5000, 397.6417 228.2750C 398.4087 229.0500, 399.1756 231.4750, 399.9425 232.8500C 400.7094 234.2250, 401.4763 235.4125, 402.2432 236.5250C 403.0101 237.6375, 403.7770 238.7125, 404.5440 239.5250C 405.3109 240.3375, 406.0778 239.8875, 406.8447 241.4000C 407.6116 242.9125, 408.3785 246.8125, 409.1454 248.6000C 409.9124 250.3875, 410.6793 251.5875, 411.4462 252.1250C 412.2131 252.6625, 412.9800 253.1000, 413.7469 251.8250C 414.5138 250.5500, 415.2807 245.7000, 416.0477 244.4750C 416.8146 243.2500, 417.5815 244.2750, 418.3484 244.4750C 419.1153 244.6750, 419.8822 245.7500, 420.6491 245.6750C 421.4161 245.6000, 422.1830 243.7375, 422.9499 244.0250C 423.7168 244.3125, 424.4837 246.7875, 425.2506 247.4000C 426.0175 248.0125, 426.7844 247.7625, 427.5514 247.7000C 428.3183 247.6375, 429.0852 247.9375, 429.8521 247.0250C 430.6190 246.1125, 431.3859 243.9375, 432.1528 242.2250C 432.9197 240.5125, 433.6867 238.4500, 434.4536 236.7500C 435.2205 235.0500, 435.9874 233.1125, 436.7543 232.0250C 437.5212 230.9375, 438.2881 230.6375, 439.0551 230.2250C 439.8220 229.8125, 440.5889 229.6000, 441.3558 229.5500C 442.1227 229.5000, 442.8896 230.0000, 443.6565 229.9250C 444.4234 229.8500, 445.1904 229.2250, 445.9573 229.1000C 446.7242 228.9750, 447.4911 229.5250, 448.2580 229.1750C 449.0249 228.8250, 449.7918 227.3125, 450.5588 227.0000C 451.3257 226.6875, 452.0926 227.9250, 452.8595 227.3000C 453.6264 226.6750, 454.3933 224.1250, 455.1602 223.2500C 455.9271 222.3750, 456.6941 222.3125, 457.4610 222.0500C 458.2279 221.7875, 458.9948 221.8625, 459.7617 221.6750C 460.5286 221.4875, 461.2955 220.6875, 462.0624 220.9250C 462.8294 221.1625, 463.5963 223.2125, 464.3632 223.1000C 465.1301 222.9875, 465.8970 221.5500, 466.6639 220.2500C 467.4308 218.9500, 468.1978 216.4375, 468.9647 215.3000C 469.7316 214.1625, 470.4985 213.8125, 471.2654 213.4250C 472.0323 213.0375, 472.7992 214.5625, 473.5661 212.9750C 474.3331 211.3875, 475.1000 204.8750, 475.8669 203.9000C 476.6338 202.9250, 477.4007 206.6000, 478.1676 207.1250C 478.9345 207.6500, 479.7015 207.1750, 480.4684 207.0500C 481.2353 206.9250, 482.0022 206.3375, 482.7691 206.3750C 483.5360 206.4125, 484.3029 207.1500, 485.0698 207.2750C 485.8368 207.4000, 486.6037 207.4625, 487.3706 207.1250C 488.1375 206.7875, 488.9044 205.4750, 489.6713 205.2500C 490.4382 205.0250, 491.2051 205.6875, 491.9721 205.7750C 492.7390 205.8625, 493.5059 206.2375, 494.2728 205.7750C 495.0397 205.3125, 495.8066 203.8500, 496.5735 203.0000C 497.3405 202.1500, 498.1074 202.1750, 498.8743 200.6750C 499.6412 199.1750, 500.4081 195.5125, 501.1750 194.0000C 501.9419 192.4875, 502.7088 191.7750, 503.4758 191.6000C 504.2427 191.4250, 505.0096 193.0875, 505.7765 192.9500C 506.5434 192.8125, 507.3103 191.4125, 508.0772 190.7750C 508.8442 190.1375, 509.6111 190.3750, 510.3780 189.1250C 511.1449 187.8750, 511.9118 184.4750, 512.6787 183.2750C 513.4456 182.0750, 514.2125 181.9250, 514.9795 181.9250C 515.7464 181.9250, 516.5133 182.9250, 517.2802 183.2750C 518.0471 183.6250, 518.8140 184.1125, 519.5809 184.0250C 520.3478 183.9375, 521.1148 182.7500, 521.8817 182.7500C 522.6486 182.7500, 523.4155 183.8625, 524.1824 184.0250C 524.9493 184.1875, 525.7162 183.0625, 526.4832 183.7250C 527.2501 184.3875, 528.0170 187.0625, 528.7839 188.0000C 529.5508 188.9375, 530.3177 189.1500, 531.0846 189.3500C 531.8515 189.5500, 532.6185 189.5875, 533.3854 189.2000C 534.1523 188.8125, 534.9192 187.4000, 535.6861 187.0250C 536.4530 186.6500, 537.2199 186.9500, 537.9869 186.9500C 538.7538 186.9500, 539.5207 187.0125, 540.2876 187.0250C 541.0545 187.0375, 541.8214 187.0125, 542.5883 187.0250C 543.3552 187.0375, 544.1222 187.1125, 544.8891 187.1000C 545.6560 187.0875, 546.4229 187.1875, 547.1898 186.9500C 547.9567 186.7125, 548.7236 186.3250, 549.4906 185.6750C 550.2575 185.0250, 551.0244 183.5125, 551.7913 183.0500C 552.5582 182.5875, 553.3251 182.7375, 554.0920 182.9000C 554.8589 183.0625, 555.6259 183.4500, 556.3928 184.0250C 557.1597 184.6000, 557.9266 186.2500, 558.6935 186.3500C 559.4604 186.4500, 560.2273 185.1500, 560.9942 184.6250C 561.7612 184.1000, 562.5281 183.4875, 563.2950 183.2000C 564.0619 182.9125, 564.8288 182.5750, 565.5957 182.9000C 566.3626 183.2250, 567.1296 184.4125, 567.8965 185.1500C 568.6634 185.8875, 569.4303 186.7750, 570.1972 187.3250C 570.9641 187.8750, 571.7310 188.4375, 572.4979 188.4500C 573.2649 188.4625, 574.0318 187.7500, 574.7987 187.4000C 575.5656 187.0500, 576.3325 186.5750, 577.0994 186.3500C 577.8663 186.1250, 578.6333 185.6875, 579.4002 186.0500C 580.1671 186.4125, 580.9340 188.0250, 581.7009 188.5250C 582.4678 189.0250, 583.2347 188.8000, 584.0016 189.0500C 584.7686 189.3000, 585.5355 189.7125, 586.3024 190.0250C 587.0693 190.3375, 587.8362 191.0875, 588.6031 190.9250C 589.3700 190.7625, 590.1369 189.3000, 590.9039 189.0500C 591.6708 188.8000, 592.4377 189.5875, 593.2046 189.4250C 593.9715 189.2625, 594.7384 189.0125, 595.5053 188.0750C 596.2723 187.1375, 597.0392 184.1375, 597.8061 183.8000C 598.5730 183.4625, 599.3399 185.3500, 600.1068 186.0500C 600.8737 186.7500, 601.6406 187.5250, 602.4076 188.0000C 603.1745 188.4750, 603.9414 189.5000, 604.7083 188.9000C 605.4752 188.3000, 606.2421 185.1750, 607.0090 184.4000C 607.7760 183.6250, 608.5429 183.8125, 609.3098 184.2500C 610.0767 184.6875, 610.8436 186.6125, 611.6105 187.0250C 612.3774 187.4375, 613.1443 187.2750, 613.9113 186.7250C 614.6782 186.1750, 615.4451 184.7625, 616.2120 183.7250C 616.9789 182.6875, 617.7458 180.9500, 618.5127 180.5000C 619.2796 180.0500, 620.0466 180.7250, 620.8135 181.0250C 621.5804 181.3250, 622.3473 182.2625, 623.1142 182.3000C 623.8811 182.3375, 624.6480 181.9875, 625.4150 181.2500C 626.1819 180.5125, 626.9488 178.2000, 627.7157 177.8750C 628.4826 177.5500, 629.2495 179.1000, 630.0164 179.3000C 630.7833 179.5000, 631.5503 179.3000, 632.3172 179.0750C 633.0841 178.8500, 633.8510 177.8500, 634.6179 177.9500C 635.3848 178.0500, 636.1517 179.2375, 636.9187 179.6750C 637.6856 180.1125, 638.4525 180.8500, 639.2194 180.5750C 639.9863 180.3000, 640.7532 177.6625, 641.5201 178.0250C 642.2870 178.3875, 643.0540 182.3875, 643.8209 182.7500C 644.5878 183.1125, 645.3547 180.3500, 646.1216 180.2000C 646.8885 180.0500, 647.6554 181.3250, 648.4224 181.8500C 649.1893 182.3750, 649.9562 183.7250, 650.7231 183.3500C 651.4900 182.9750, 652.2569 180.0000, 653.0238 179.6000C 653.7907 179.2000, 654.5577 180.5625, 655.3246 180.9500C 656.0915 181.3375, 656.8584 181.8000, 657.6253 181.9250C 658.3922 182.0500, 659.1591 182.4250, 659.9260 181.7000C 660.6930 180.9750, 661.4599 178.7250, 662.2268 177.5750C 662.9937 176.4250, 663.7606 175.4875, 664.5275 174.8000C 665.2944 174.1125, 666.0614 174.2625, 666.8283 173.4500C 667.5952 172.6375, 668.3621 170.8250, 669.1290 169.9250C 669.8959 169.0250, 670.6628 169.0625, 671.4297 168.0500C 672.1967 167.0375, 672.9636 163.9375, 673.7305 163.8500C 674.4974 163.7625, 675.2643 166.8625, 676.0312 167.5250C 676.7981 168.1875, 677.5651 168.5875, 678.3320 167.8250C 679.0989 167.0625, 679.8658 163.4250, 680.6327 162.9500C 681.3996 162.4750, 682.1665 164.2125, 682.9334 164.9750C 683.7004 165.7375, 684.4673 167.1250, 685.2342 167.5250C 686.0011 167.9250, 686.7680 167.2125, 687.5349 167.3750C 688.3018 167.5375, 689.0687 167.9000, 689.8357 168.5000C 690.6026 169.1000, 691.3695 170.5250, 692.1364 170.9750C 692.9033 171.4250, 693.6702 170.9375, 694.4371 171.2000C 695.2041 171.4625, 695.9710 172.5500, 696.7379 172.5500C 697.5048 172.5500, 698.2717 171.7750, 699.0386 171.2000C 699.8055 170.6250, 700.5724 169.7125, 701.3394 169.1000C 702.1063 168.4875, 702.8732 166.5875, 703.6401 167.5250C 704.4070 168.4625, 705.1739 173.5000, 705.9408 174.7250C 706.7078 175.9500, 707.4747 174.5375, 708.2416 174.8750C 709.0085 175.2125, 709.7754 176.3875, 710.5423 176.7500C 711.3092 177.1125, 712.0761 176.9625, 712.8431 177.0500C 713.6100 177.1375, 714.3769 177.0500, 715.1438 177.2750C 715.9107 177.5000, 716.6776 178.0500, 717.4445 178.4000C 718.2114 178.7500, 718.9784 179.2500, 719.7453 179.3750C 720.5122 179.5000, 721.2791 179.2750, 722.0460 179.1500C 722.8129 179.0250, 723.5798 178.6500, 724.3468 178.6250C 725.1137 178.6000, 725.8806 178.9875, 726.6475 179.0000C 727.4144 179.0125, 728.1813 179.2875, 728.9482 178.7000C 729.7151 178.1125, 730.4821 175.4750, 731.2490 175.4750C 732.0159 175.4750, 732.7828 178.7625, 733.5497 178.7000C 734.3166 178.6375, 735.3903 175.7125, 735.8505 175.1000C 736.3106 174.4875, 736.1572 175.0625, 736.3106 175.0250C 736.4640 174.9875, 736.4640 174.9500, 736.7707 174.8750C 737.0775 174.8000, 737.8444 174.7250, 738.1512 174.5750C 738.4580 174.4250, 738.4196 174.2125, 738.6113 173.9750C 738.8031 173.7375, 738.9948 173.5250, 739.3016 173.1500C 739.6083 172.7750, 740.2219 171.9125, 740.4519 171.7250C 740.6820 171.5375, 740.2985 171.4875, 740.6820 172.0250C 741.0655 172.5625, 742.0241 175.1125, 742.7527 174.9500C 743.4812 174.7875, 744.2865 172.7250, 745.0534 171.0500C 745.8203 169.3750, 746.5872 167.1750, 747.3541 164.9000C 748.1211 162.6250, 748.8880 159.1625, 749.6549 157.4000C 750.4218 155.6375, 751.1887 155.0750, 751.9556 154.3250C 752.7225 153.5750, 753.4895 153.2750, 754.2564 152.9000C 755.0233 152.5250, 755.7902 153.4750, 756.5571 152.0750C 757.3240 150.6750, 758.0909 146.2125, 758.8578 144.5000C 759.6248 142.7875, 760.3917 142.5000, 761.1586 141.8000C 761.9255 141.1000, 762.6924 141.1000, 763.4593 140.3000C 764.2262 139.5000, 764.9932 138.5000, 765.7601 137.0000C 766.5270 135.5000, 767.2939 133.1000, 768.0608 131.3000C 768.8277 129.5000, 769.5946 127.4625, 770.3615 126.2000C 771.1285 124.9375, 771.8954 124.3750, 772.6623 123.7250C 773.4292 123.0750, 774.1961 123.3125, 774.9630 122.3000C 775.7299 121.2875, 776.4969 118.9750, 777.2638 117.6500C 778.0307 116.3250, 778.7976 114.9500, 779.5645 114.3500C 780.3314 113.7500, 781.0983 114.6375, 781.8652 114.0500C 782.6322 113.4625, 783.3991 111.3000, 784.1660 110.8250C 784.9329 110.3500, 785.6998 111.8000, 786.4667 111.2000C 787.2336 110.6000, 788.0005 106.8625, 788.7675 107.2250C 789.5344 107.5875, 790.3013 112.8625, 791.0682 113.3750C 791.8351 113.8875, 792.6020 110.7250, 793.3689 110.3000C 794.1359 109.8750, 794.9028 111.5000, 795.6697 110.8250C 796.4366 110.1500, 797.2035 107.8750, 797.9704 106.2500C 798.7373 104.6250, 799.5042 102.9500, 800.2712 101.0750C 801.0381 99.2000, 802.1884 96.0125, 802.5719 95.0000C 802.9554 93.9875, 802.1884 95.3625, 802.5719 95.0000C 802.9554 94.6375, 804.1441 92.8000, 804.8726 92.8250C 805.6012 92.8500, 806.5598 94.7250, 806.9433 95.1500C 807.3268 95.5750, 806.8283 95.7250, 807.1734 95.3750C 807.5185 95.0250, 808.6305 93.5375, 809.0140 93.0500C 809.3974 92.5625, 809.0140 92.9250, 809.4741 92.4500C 809.9343 91.9750, 811.0079 90.5125, 811.7749 90.2000C 812.5418 89.8875, 813.3087 91.2000, 814.0756 90.5750C 814.8425 89.9500, 815.6094 87.2125, 816.3763 86.4500C 817.1432 85.6875, 817.9102 85.8750, 818.6771 86.0000C 819.4440 86.1250, 820.2109 86.4000, 820.9778 87.2000C 821.7447 88.0000, 822.5116 89.9875, 823.2786 90.8000C 824.0455 91.6125, 824.8124 91.5250, 825.5793 92.0750C 826.3462 92.6250, 827.1131 94.2500, 827.8800 94.1000C 828.6469 93.9500, 829.4139 91.2750, 830.1808 91.1750C 830.9477 91.0750, 831.7146 94.0750, 832.4815 93.5000C 833.2484 92.9250, 834.0153 88.4875, 834.7823 87.7250C 835.5492 86.9625, 836.3161 88.8625, 837.0830 88.9250C 837.8499 88.9875, 838.6168 87.9250, 839.3837 88.1000C 840.1506 88.2750, 840.9176 90.0625, 841.6845 89.9750C 842.4514 89.8875, 843.2183 88.2000, 843.9852 87.5750C 844.7521 86.9500, 845.9025 86.4500, 846.2859 86.2250C 846.6694 86.0000, 845.9025 85.9750, 846.2859 86.2250C 846.6694 86.4750, 847.8198 87.9625, 848.5867 87.7250C 849.3536 87.4875, 850.1205 85.8375, 850.8874 84.8000C 851.6543 83.7625, 852.4213 81.6875, 853.1882 81.5000C 853.9551 81.3125, 854.7220 83.0375, 855.4889 83.6750C 856.2558 84.3125, 857.0227 86.8250, 857.7896 85.3250C 858.5566 83.8250, 859.3235 77.3125, 860.0904 74.6750C 860.8573 72.0375, 861.6242 69.0375, 862.3911 69.5000C 863.1580 69.9625, 863.9250 75.9625, 864.6919 77.4500C 865.4588 78.9375, 866.2257 79.5625, 866.9926 78.4250C 867.7595 77.2875, 868.5264 71.6375, 869.2933 70.6250C 870.0603 69.6125, 870.8272 71.7125, 871.5941 72.3500C 872.3610 72.9875, 873.1279 74.9125, 873.8948 74.4500C 874.6617 73.9875, 875.4286 70.7875, 876.1956 69.5750C 876.9625 68.3625, 877.7294 67.5250, 878.4963 67.1750C 879.2632 66.8250, 880.0301 67.6125, 880.7970 67.4750C 881.5640 67.3375, 882.4843 67.7500, 883.0978 66.3500C 883.7113 64.9500, 884.0948 61.0875, 884.4782 59.0750C 884.8617 57.0625, 885.2451 55.0750, 885.3985 54.2750C 885.5519 53.4750, 885.0151 54.8250, 885.3985 54.2750C 885.7820 53.7250, 886.9323 51.5375, 887.6993 50.9750C 888.4662 50.4125, 889.6165 50.9125, 890.0000 50.9000 L 890 50" stroke-width="2.0" fill="none" />
    <path stroke="#51CE44" d="M 50 50 C 50.7669 54.8952, 51.6105 55.4048, 52.3007 55.6571C 52.9910 55.9095, 53.8346 56.0167, 54.6015 56.2571C 55.3684 56.4976, 56.1353 56.7167, 56.9022 57.1000C 57.6691 57.4833, 58.4360 58.1762, 59.2030 58.5571C 59.9699 58.9381, 60.7368 58.8429, 61.5037 59.3857C 62.2706 59.9286, 63.0375 61.4357, 63.8044 61.8143C 64.5714 62.1929, 65.3383 61.3857, 66.1052 61.6571C 66.8721 61.9286, 67.6390 63.0119, 68.4059 63.4429C 69.1728 63.8738, 69.9397 63.8595, 70.7067 64.2429C 71.4736 64.6262, 72.2405 65.3262, 73.0074 65.7429C 73.7743 66.1595, 74.1578 66.4071, 75.3081 66.7429C 76.4585 67.0786, 78.7592 67.3952, 79.9096 67.7571C 81.0600 68.1190, 81.4434 68.5643, 82.2104 68.9143C 82.9773 69.2643, 83.7442 69.5738, 84.5111 69.8571C 85.2780 70.1405, 86.0449 70.3000, 86.8118 70.6143C 87.5787 70.9286, 88.3457 71.3643, 89.1126 71.7429C 89.8795 72.1214, 90.6464 72.5167, 91.4133 72.8857C 92.1802 73.2548, 92.9471 73.7000, 93.7141 73.9571C 94.4810 74.2143, 95.2479 74.0929, 96.0148 74.4286C 96.7817 74.7643, 97.5486 75.6286, 98.3155 75.9714C 99.0824 76.3143, 99.8494 76.2738, 100.6163 76.4857C 101.3832 76.6976, 102.1501 76.8357, 102.9170 77.2429C 103.6839 77.6500, 104.4508 78.5190, 105.2177 78.9286C 105.9847 79.3381, 106.7516 79.3857, 107.5185 79.7000C 108.2854 80.0143, 109.0523 80.4214, 109.8192 80.8143C 110.5861 81.2071, 111.3531 81.6976, 112.1200 82.0571C 112.8869 82.4167, 113.6538 82.5810, 114.4207 82.9714C 115.1876 83.3619, 115.9545 83.9929, 116.7214 84.4000C 117.4884 84.8071, 118.2553 85.1381, 119.0222 85.4143C 119.7891 85.6905, 120.5560 85.6905, 121.3229 86.0571C 122.0898 86.4238, 122.4733 86.9595, 123.6237 87.6143C 124.7740 88.2690, 127.0748 89.4690, 128.2251 89.9857C 129.3755 90.5024, 129.7590 90.4643, 130.5259 90.7143C 131.2928 90.9643, 132.0597 91.2048, 132.8266 91.4857C 133.5935 91.7667, 134.3604 92.0429, 135.1274 92.4000C 135.8943 92.7571, 136.6612 93.1262, 137.4281 93.6286C 138.1950 94.1310, 138.9619 94.8571, 139.7288 95.4143C 140.4958 95.9714, 141.2627 96.5381, 142.0296 96.9714C 142.7965 97.4048, 143.5634 97.6976, 144.3303 98.0143C 145.0972 98.3310, 145.8641 98.5214, 146.6311 98.8714C 147.3980 99.2214, 148.1649 99.7810, 148.9318 100.1143C 149.6987 100.4476, 150.4656 100.5833, 151.2325 100.8714C 151.9995 101.1595, 152.7664 101.3167, 153.5333 101.8429C 154.3002 102.3690, 155.0671 103.5643, 155.8340 104.0286C 156.6009 104.4929, 157.3678 104.3429, 158.1348 104.6286C 158.9017 104.9143, 159.6686 105.3071, 160.4355 105.7429C 161.2024 106.1786, 161.9693 106.8071, 162.7362 107.2429C 163.5031 107.6786, 164.2701 108.0000, 165.0370 108.3571C 165.8039 108.7143, 166.5708 109.0333, 167.3377 109.3857C 168.1046 109.7381, 168.8715 110.1595, 169.6385 110.4714C 170.4054 110.7833, 171.1723 110.9190, 171.9392 111.2571C 172.7061 111.5952, 173.4730 112.1381, 174.2399 112.5000C 175.0068 112.8619, 175.7738 113.0738, 176.5407 113.4286C 177.3076 113.7833, 178.0745 114.1643, 178.8414 114.6286C 179.6083 115.0929, 180.3752 115.7690, 181.1422 116.2143C 181.9091 116.6595, 182.6760 117.0738, 183.4429 117.3000C 184.2098 117.5262, 184.9767 117.3690, 185.7436 117.5714C 186.5105 117.7738, 187.2775 118.1238, 188.0444 118.5143C 188.8113 118.9048, 189.5782 119.7810, 190.3451 119.9143C 191.1120 120.0476, 191.8789 119.1548, 192.6459 119.3143C 193.4128 119.4738, 194.1797 120.4000, 194.9466 120.8714C 195.7135 121.3429, 196.4804 121.8286, 197.2473 122.1429C 198.0142 122.4571, 198.7812 122.4476, 199.5481 122.7571C 200.3150 123.0667, 201.0819 123.7262, 201.8488 124.0000C 202.6157 124.2738, 203.3826 124.1643, 204.1495 124.4000C 204.9165 124.6357, 205.6834 125.2095, 206.4503 125.4143C 207.2172 125.6190, 207.9841 125.4952, 208.7510 125.6286C 209.5179 125.7619, 210.2849 125.8000, 211.0518 126.2143C 211.8187 126.6286, 212.5856 127.6167, 213.3525 128.1143C 214.1194 128.6119, 214.8863 128.8500, 215.6532 129.2000C 216.4202 129.5500, 217.1871 129.9762, 217.9540 130.2143C 218.7209 130.4524, 219.4878 130.4500, 220.2547 130.6286C 221.0216 130.8071, 221.7886 130.9095, 222.5555 131.2857C 223.3224 131.6619, 224.0893 132.4929, 224.8562 132.8857C 225.6231 133.2786, 226.3900 133.4500, 227.1569 133.6429C 227.9239 133.8357, 228.6908 133.8571, 229.4577 134.0429C 230.2246 134.2286, 230.9915 134.4810, 231.7584 134.7571C 232.5253 135.0333, 233.2922 135.3690, 234.0592 135.7000C 234.8261 136.0310, 235.5930 136.4857, 236.3599 136.7429C 237.1268 137.0000, 237.8937 136.9929, 238.6606 137.2429C 239.4276 137.4929, 240.1945 138.0881, 240.9614 138.2429C 241.7283 138.3976, 242.4952 137.9857, 243.2621 138.1714C 244.0290 138.3571, 244.7959 138.9952, 245.5629 139.3571C 246.3298 139.7190, 247.0967 140.0738, 247.8636 140.3429C 248.6305 140.6119, 249.3974 140.7476, 250.1643 140.9714C 250.9313 141.1952, 251.6982 141.4262, 252.4651 141.6857C 253.2320 141.9452, 253.9989 142.1286, 254.7658 142.5286C 255.5327 142.9286, 256.2996 143.7429, 257.0666 144.0857C 257.8335 144.4286, 258.6004 144.4429, 259.3673 144.5857C 260.1342 144.7286, 260.9011 144.7357, 261.6680 144.9429C 262.4349 145.1500, 263.2019 145.5762, 263.9688 145.8286C 264.7357 146.0810, 265.5026 146.0810, 266.2695 146.4571C 267.0364 146.8333, 267.8033 147.8857, 268.5703 148.0857C 269.3372 148.2857, 270.1041 147.5786, 270.8710 147.6571C 271.6379 147.7357, 272.4048 148.2857, 273.1717 148.5571C 273.9386 148.8286, 274.7056 149.0143, 275.4725 149.2857C 276.2394 149.5571, 277.0063 149.9905, 277.7732 150.1857C 278.5401 150.3810, 279.3070 150.2857, 280.0740 150.4571C 280.8409 150.6286, 281.6078 150.9619, 282.3747 151.2143C 283.1416 151.4667, 283.9085 151.7143, 284.6754 151.9714C 285.4423 152.2286, 286.2093 152.5238, 286.9762 152.7571C 287.7431 152.9905, 288.5100 153.0571, 289.2769 153.3714C 290.0438 153.6857, 290.8107 154.4976, 291.5776 154.6429C 292.3446 154.7881, 293.1115 154.1119, 293.8784 154.2429C 294.6453 154.3738, 295.4122 155.0405, 296.1791 155.4286C 296.9460 155.8167, 297.7130 156.4333, 298.4799 156.5714C 299.2468 156.7095, 300.0137 155.9310, 300.7806 156.2571C 301.5475 156.5833, 302.3144 157.9810, 303.0813 158.5286C 303.8483 159.0762, 304.6152 159.4119, 305.3821 159.5429C 306.1490 159.6738, 306.9159 159.1524, 307.6828 159.3143C 308.4497 159.4762, 309.2167 160.1857, 309.9836 160.5143C 310.7505 160.8429, 311.5174 161.0143, 312.2843 161.2857C 313.0512 161.5571, 313.8181 161.8643, 314.5850 162.1429C 315.3520 162.4214, 316.1189 162.5500, 316.8858 162.9571C 317.6527 163.3643, 318.4196 164.2095, 319.1865 164.5857C 319.9534 164.9619, 320.7204 164.9905, 321.4873 165.2143C 322.2542 165.4381, 323.0211 165.5881, 323.7880 165.9286C 324.5549 166.2690, 325.3218 166.9357, 326.0887 167.2571C 326.8557 167.5786, 327.6226 167.6119, 328.3895 167.8571C 329.1564 168.1024, 329.9233 168.4214, 330.6902 168.7286C 331.4571 169.0357, 332.2240 169.4095, 332.9910 169.7000C 333.7579 169.9905, 334.5248 170.2310, 335.2917 170.4714C 336.0586 170.7119, 336.8255 170.9476, 337.5924 171.1429C 338.3594 171.3381, 339.1263 171.4500, 339.8932 171.6429C 340.6601 171.8357, 341.4270 171.9214, 342.1939 172.3000C 342.9608 172.6786, 343.7277 173.5667, 344.4947 173.9143C 345.2616 174.2619, 346.0285 174.1810, 346.7954 174.3857C 347.5623 174.5905, 348.3292 174.8310, 349.0961 175.1429C 349.8631 175.4548, 350.6300 175.8548, 351.3969 176.2571C 352.1638 176.6595, 352.9307 177.3000, 353.6976 177.5571C 354.4645 177.8143, 355.2314 177.5524, 355.9984 177.8000C 356.7653 178.0476, 357.5322 178.7905, 358.2991 179.0429C 359.0660 179.2952, 359.8329 178.9571, 360.5998 179.3143C 361.3667 179.6714, 362.1337 180.8500, 362.9006 181.1857C 363.6675 181.5214, 364.4344 181.0667, 365.2013 181.3286C 365.9682 181.5905, 366.7351 182.3905, 367.5021 182.7571C 368.2690 183.1238, 369.0359 183.3071, 369.8028 183.5286C 370.5697 183.7500, 371.3366 184.0143, 372.1035 184.0857C 372.8704 184.1571, 373.6374 183.8333, 374.4043 183.9571C 375.1712 184.0810, 375.9381 184.4524, 376.7050 184.8286C 377.4719 185.2048, 378.2388 185.7500, 379.0058 186.2143C 379.7727 186.6786, 380.5396 187.2762, 381.3065 187.6143C 382.0734 187.9524, 382.8403 188.1571, 383.6072 188.2429C 384.3741 188.3286, 385.1411 188.0738, 385.9080 188.1286C 386.6749 188.1833, 387.4035 188.2952, 388.2087 188.5714C 389.0140 188.8476, 389.9343 189.4095, 390.7395 189.7857C 391.5448 190.1619, 392.2733 190.5357, 393.0403 190.8286C 393.8072 191.1214, 394.5741 191.3238, 395.3410 191.5429C 396.1079 191.7619, 396.8748 191.9333, 397.6417 192.1429C 398.4087 192.3524, 399.1756 192.5452, 399.9425 192.8000C 400.7094 193.0548, 401.4763 193.3524, 402.2432 193.6714C 403.0101 193.9905, 403.7770 194.4476, 404.5440 194.7143C 405.3109 194.9810, 406.0778 195.0405, 406.8447 195.2714C 407.6116 195.5024, 408.3785 195.6929, 409.1454 196.1000C 409.9124 196.5071, 410.6793 197.4119, 411.4462 197.7143C 412.2131 198.0167, 412.9800 197.7333, 413.7469 197.9143C 414.5138 198.0952, 415.2807 198.5548, 416.0477 198.8000C 416.8146 199.0452, 417.5815 199.1214, 418.3484 199.3857C 419.1153 199.6500, 419.8822 200.0452, 420.6491 200.3857C 421.4161 200.7262, 422.1830 201.1762, 422.9499 201.4286C 423.7168 201.6810, 424.4837 201.7167, 425.2506 201.9000C 426.0175 202.0833, 426.7844 202.2333, 427.5514 202.5286C 428.3183 202.8238, 429.0852 203.5333, 429.8521 203.6714C 430.6190 203.8095, 431.3859 203.0667, 432.1528 203.3571C 432.9197 203.6476, 433.6867 205.1238, 434.4536 205.4143C 435.2205 205.7048, 435.9874 205.0119, 436.7543 205.1000C 437.5212 205.1881, 438.2881 205.7095, 439.0551 205.9429C 439.8220 206.1762, 440.5889 206.2310, 441.3558 206.5000C 442.1227 206.7690, 442.8896 207.2738, 443.6565 207.5571C 444.4234 207.8405, 445.1904 207.9786, 445.9573 208.2000C 446.7242 208.4214, 447.4911 208.6262, 448.2580 208.8857C 449.0249 209.1452, 449.7918 209.4667, 450.5588 209.7571C 451.3257 210.0476, 452.0926 210.3786, 452.8595 210.6286C 453.6264 210.8786, 454.3933 211.0333, 455.1602 211.2571C 455.9271 211.4810, 456.6941 211.7929, 457.4610 211.9714C 458.2279 212.1500, 458.9948 212.0952, 459.7617 212.3286C 460.5286 212.5619, 461.2955 213.0143, 462.0624 213.3714C 462.8294 213.7286, 463.5963 214.3333, 464.3632 214.4714C 465.1301 214.6095, 465.8970 214.2143, 466.6639 214.2000C 467.4308 214.1857, 468.1978 214.0976, 468.9647 214.3857C 469.7316 214.6738, 470.4985 215.7357, 471.2654 215.9286C 472.0323 216.1214, 472.7992 215.4167, 473.5661 215.5429C 474.3331 215.6690, 475.1000 216.5143, 475.8669 216.6857C 476.6338 216.8571, 477.4007 216.4643, 478.1676 216.5714C 478.9345 216.6786, 479.7015 217.1381, 480.4684 217.3286C 481.2353 217.5190, 482.0022 217.3714, 482.7691 217.7143C 483.5360 218.0571, 484.3029 219.0929, 485.0698 219.3857C 485.8368 219.6786, 486.6037 219.3524, 487.3706 219.4714C 488.1375 219.5905, 488.9044 219.9095, 489.6713 220.1000C 490.4382 220.2905, 491.2051 220.4548, 491.9721 220.6143C 492.7390 220.7738, 493.5059 220.8429, 494.2728 221.0571C 495.0397 221.2714, 495.8066 221.6548, 496.5735 221.9000C 497.3405 222.1452, 498.1074 222.3714, 498.8743 222.5286C 499.6412 222.6857, 500.4081 222.7048, 501.1750 222.8429C 501.9419 222.9810, 502.7088 223.1190, 503.4758 223.3571C 504.2427 223.5952, 505.0096 223.9929, 505.7765 224.2714C 506.5434 224.5500, 507.3103 224.8571, 508.0772 225.0286C 508.8442 225.2000, 509.6111 225.0810, 510.3780 225.3000C 511.1449 225.5190, 511.9118 226.1548, 512.6787 226.3429C 513.4456 226.5310, 514.2125 226.1929, 514.9795 226.4286C 515.7464 226.6643, 516.5133 227.5738, 517.2802 227.7571C 518.0471 227.9405, 518.8140 227.4548, 519.5809 227.5286C 520.3478 227.6024, 521.1148 227.9762, 521.8817 228.2000C 522.6486 228.4238, 523.4155 228.6190, 524.1824 228.8714C 524.9493 229.1238, 525.7162 229.5024, 526.4832 229.7143C 527.2501 229.9262, 528.0170 229.8262, 528.7839 230.1429C 529.5508 230.4595, 530.3177 231.4500, 531.0846 231.6143C 531.8515 231.7786, 532.6185 231.0405, 533.3854 231.1286C 534.1523 231.2167, 534.9192 231.8952, 535.6861 232.1429C 536.4530 232.3905, 537.2199 232.4714, 537.9869 232.6143C 538.7538 232.7571, 538.3703 232.6024, 540.2876 233.0000C 542.2049 233.3976, 547.5733 234.5571, 549.4906 235.0000C 551.4078 235.4429, 551.0244 235.4143, 551.7913 235.6571C 552.5582 235.9000, 553.3251 236.2238, 554.0920 236.4571C 554.8589 236.6905, 555.6259 236.7714, 556.3928 237.0571C 557.1597 237.3429, 557.9266 238.0405, 558.6935 238.1714C 559.4604 238.3024, 560.2273 237.7643, 560.9942 237.8429C 561.7612 237.9214, 562.5281 238.4238, 563.2950 238.6429C 564.0619 238.8619, 564.8288 238.9738, 565.5957 239.1571C 566.3626 239.3405, 567.1296 239.5595, 567.8965 239.7429C 568.6634 239.9262, 569.4303 240.0048, 570.1972 240.2571C 570.9641 240.5095, 571.7310 240.9905, 572.4979 241.2571C 573.2649 241.5238, 574.0318 241.6738, 574.7987 241.8571C 575.5656 242.0405, 576.3325 242.2333, 577.0994 242.3571C 577.8663 242.4810, 578.6333 242.4976, 579.4002 242.6000C 580.1671 242.7024, 580.9340 242.8262, 581.7009 242.9714C 582.4678 243.1167, 583.2347 243.2690, 584.0016 243.4714C 584.7686 243.6738, 585.5355 244.0071, 586.3024 244.1857C 587.0693 244.3643, 587.8362 244.3833, 588.6031 244.5429C 589.3700 244.7024, 590.1369 244.9381, 590.9039 245.1429C 591.6708 245.3476, 592.4377 245.5381, 593.2046 245.7714C 593.9715 246.0048, 594.7384 246.3095, 595.5053 246.5429C 596.2723 246.7762, 597.0392 246.9810, 597.8061 247.1714C 598.5730 247.3619, 599.3399 247.5333, 600.1068 247.6857C 600.8737 247.8381, 601.6406 247.8690, 602.4076 248.0857C 603.1745 248.3024, 603.9414 248.7667, 604.7083 248.9857C 605.4752 249.2048, 606.2421 249.2929, 607.0090 249.4000C 607.7760 249.5071, 608.5429 249.5452, 609.3098 249.6286C 610.0767 249.7119, 610.8436 249.6095, 611.6105 249.9000C 612.3774 250.1905, 613.1443 251.1571, 613.9113 251.3714C 614.6782 251.5857, 615.4451 251.0905, 616.2120 251.1857C 616.9789 251.2810, 617.7458 251.7238, 618.5127 251.9429C 619.2796 252.1619, 620.0466 252.2905, 620.8135 252.5000C 621.5804 252.7095, 622.3473 252.8119, 623.1142 253.2000C 623.8811 253.5881, 624.6480 254.4690, 625.4150 254.8286C 626.1819 255.1881, 626.5653 255.1595, 627.7157 255.3571C 628.8661 255.5548, 631.1668 255.8714, 632.3172 256.0143C 633.4675 256.1571, 633.8510 256.0738, 634.6179 256.2143C 635.3848 256.3548, 636.1517 256.6429, 636.9187 256.8571C 637.6856 257.0714, 638.4525 257.2286, 639.2194 257.5000C 639.9863 257.7714, 640.7532 258.2643, 641.5201 258.4857C 642.2870 258.7071, 643.0540 258.6786, 643.8209 258.8286C 644.5878 258.9786, 645.3547 259.1476, 646.1216 259.3857C 646.8885 259.6238, 647.6554 260.1095, 648.4224 260.2571C 649.1893 260.4048, 649.9562 260.3095, 650.7231 260.2714C 651.4900 260.2333, 652.2569 259.9238, 653.0238 260.0286C 653.7907 260.1333, 654.5577 260.6571, 655.3246 260.9000C 656.0915 261.1429, 656.8584 261.2857, 657.6253 261.4857C 658.3922 261.6857, 659.1591 261.8476, 659.9260 262.1000C 660.6930 262.3524, 661.4599 262.9357, 662.2268 263.0000C 662.9937 263.0643, 663.7606 262.4857, 664.5275 262.4857C 665.2944 262.4857, 666.0614 262.8024, 666.8283 263.0000C 667.5952 263.1976, 668.3621 263.5929, 669.1290 263.6714C 669.8959 263.7500, 670.6628 263.3905, 671.4297 263.4714C 672.1967 263.5524, 672.9636 263.9310, 673.7305 264.1571C 674.4974 264.3833, 675.2643 264.6024, 676.0312 264.8286C 676.7981 265.0548, 677.5651 265.4405, 678.3320 265.5143C 679.0989 265.5881, 679.8658 265.2000, 680.6327 265.2714C 681.3996 265.3429, 682.1665 265.7405, 682.9334 265.9429C 683.7004 266.1452, 684.4673 266.3071, 685.2342 266.4857C 686.0011 266.6643, 686.7680 266.9595, 687.5349 267.0143C 688.3018 267.0690, 689.0687 266.7429, 689.8357 266.8143C 690.6026 266.8857, 691.3695 267.2524, 692.1364 267.4429C 692.9033 267.6333, 693.6702 267.8048, 694.4371 267.9571C 695.2041 268.1095, 695.9710 268.1762, 696.7379 268.3571C 697.5048 268.5381, 698.2717 268.9571, 699.0386 269.0429C 699.8055 269.1286, 700.5724 268.8048, 701.3394 268.8714C 702.1063 268.9381, 702.8732 269.1500, 703.6401 269.4429C 704.4070 269.7357, 705.1739 270.4071, 705.9408 270.6286C 706.7078 270.8500, 707.0912 270.6452, 708.2416 270.7714C 709.3919 270.8976, 711.6927 271.2452, 712.8431 271.3857C 713.9934 271.5262, 714.3769 271.5024, 715.1438 271.6143C 715.9107 271.7262, 716.6776 271.9167, 717.4445 272.0571C 718.2114 272.1976, 718.9784 272.1952, 719.7453 272.4571C 720.5122 272.7190, 721.2791 273.3833, 722.0460 273.6286C 722.8129 273.8738, 723.5798 273.7238, 724.3468 273.9286C 725.1137 274.1333, 725.8806 274.7286, 726.6475 274.8571C 727.4144 274.9857, 728.1813 274.6500, 728.9482 274.7000C 729.7151 274.7500, 730.4821 274.9905, 731.2490 275.1571C 732.0159 275.3238, 732.7828 275.5714, 733.5497 275.7000C 734.3166 275.8286, 735.0835 275.7643, 735.8505 275.9286C 736.6174 276.0929, 737.3843 276.4929, 738.1512 276.6857C 738.9181 276.8786, 739.6850 276.8405, 740.4519 277.0857C 741.2188 277.3310, 741.9858 277.9643, 742.7527 278.1571C 743.5196 278.3500, 744.2865 278.1381, 745.0534 278.2429C 745.8203 278.3476, 746.5872 278.6405, 747.3541 278.7857C 748.1211 278.9310, 748.8880 278.8619, 749.6549 279.1143C 750.4218 279.3667, 751.1887 280.0476, 751.9556 280.3000C 752.7225 280.5524, 753.4895 280.5095, 754.2564 280.6286C 755.0233 280.7476, 755.7902 280.9048, 756.5571 281.0143C 757.3240 281.1238, 758.0909 281.1786, 758.8578 281.2857C 759.6248 281.3929, 760.3917 281.5214, 761.1586 281.6571C 761.9255 281.7929, 762.6924 281.9595, 763.4593 282.1000C 764.2262 282.2405, 764.9932 282.3571, 765.7601 282.5000C 766.5270 282.6429, 767.2939 282.8119, 768.0608 282.9571C 768.8277 283.1024, 769.5946 283.2381, 770.3615 283.3714C 771.1285 283.5048, 771.8954 283.5619, 772.6623 283.7571C 773.4292 283.9524, 774.1961 284.4905, 774.9630 284.5429C 775.7299 284.5952, 776.4969 284.0833, 777.2638 284.0714C 778.0307 284.0595, 778.7976 284.2643, 779.5645 284.4714C 780.3314 284.6786, 781.0983 285.1143, 781.8652 285.3143C 782.6322 285.5143, 783.3991 285.5476, 784.1660 285.6714C 784.9329 285.7952, 785.6998 285.9452, 786.4667 286.0571C 787.2336 286.1690, 788.0005 286.2500, 788.7675 286.3429C 789.5344 286.4357, 790.3013 286.4619, 791.0682 286.6143C 791.8351 286.7667, 792.6020 287.0381, 793.3689 287.2571C 794.1359 287.4762, 794.9028 287.8524, 795.6697 287.9286C 796.4366 288.0048, 797.2035 287.6905, 797.9704 287.7143C 798.7373 287.7381, 799.5042 287.9048, 800.2712 288.0714C 801.0381 288.2381, 801.8050 288.5476, 802.5719 288.7143C 803.3388 288.8810, 804.1057 288.9833, 804.8726 289.0714C 805.6396 289.1595, 806.4065 289.1214, 807.1734 289.2429C 807.9403 289.3643, 808.7072 289.6429, 809.4741 289.8000C 810.2410 289.9571, 811.0079 290.0762, 811.7749 290.1857C 812.5418 290.2952, 813.3087 290.3690, 814.0756 290.4571C 814.8425 290.5452, 815.6094 290.6214, 816.3763 290.7143C 817.1432 290.8071, 817.9102 290.9286, 818.6771 291.0143C 819.4440 291.1000, 820.2109 291.1333, 820.9778 291.2286C 821.7447 291.3238, 822.5116 291.4619, 823.2786 291.5857C 824.0455 291.7095, 824.8124 291.8476, 825.5793 291.9714C 826.3462 292.0952, 827.1131 292.2167, 827.8800 292.3286C 828.6469 292.4405, 829.4139 292.5190, 830.1808 292.6429C 830.9477 292.7667, 831.7146 292.9643, 832.4815 293.0714C 833.2484 293.1786, 834.0153 293.1905, 834.7823 293.2857C 835.5492 293.3810, 836.3161 293.5429, 837.0830 293.6429C 837.8499 293.7429, 838.6168 293.7786, 839.3837 293.8857C 840.1506 293.9929, 840.9176 294.1595, 841.6845 294.2857C 842.4514 294.4119, 843.2183 294.6071, 843.9852 294.6429C 844.7521 294.6786, 845.5190 294.4810, 846.2859 294.5000C 847.0529 294.5190, 847.8198 294.6643, 848.5867 294.7571C 849.3536 294.8500, 850.1205 294.9667, 850.8874 295.0571C 851.6543 295.1476, 852.4213 295.2238, 853.1882 295.3000C 853.9551 295.3762, 854.7220 295.4405, 855.4889 295.5143C 856.2558 295.5881, 857.0227 295.6500, 857.7896 295.7429C 858.5566 295.8357, 859.3235 296.0310, 860.0904 296.0714C 860.8573 296.1119, 861.6242 295.9286, 862.3911 295.9857C 863.1580 296.0429, 863.9250 296.2810, 864.6919 296.4143C 865.4588 296.5476, 866.2257 296.7381, 866.9926 296.7857C 867.7595 296.8333, 868.5264 296.6619, 869.2933 296.7000C 870.0603 296.7381, 870.8272 296.9286, 871.5941 297.0143C 872.3610 297.1000, 873.1279 297.1929, 873.8948 297.2143C 874.6617 297.2357, 875.4286 297.1024, 876.1956 297.1429C 876.9625 297.1833, 877.7294 297.4143, 878.4963 297.4571C 879.2632 297.5000, 880.0301 297.3429, 880.7970 297.4000C 881.5640 297.4571, 882.3309 297.7143, 883.0978 297.8000C 883.8647 297.8857, 884.6316 297.8524, 885.3985 297.9143C 886.1654 297.9762, 886.9323 298.0357, 887.6993 298.1714C 888.4662 298.3071, 889.6165 298.6357, 890.0000 298.7286" stroke-width="2.0" fill="none" />
    <circle cx="169.63845521774857" cy="284.525" r="3" fill="#E6FCFB" />
    <text x="169.63845521774857" y="286.525" dominant-baseline="hanging" text-anchor="middle" font-size="12" fill="#E6FCFB" font-weight="bold" >MAX 31.27m</text>
    <circle cx="890" cy="298.7285714285714" r="3" fill="#E9FEE7" />
    <text x="885" y="300.7285714285714" dominant-baseline="middle" text-anchor="end" font-size="12" fill="#E9FEE7" font-weight="bold" >36bar</text>
    <circle cx="50" cy="50" r="3" fill="#E9FEE7" />
    <text x="55" y="50" dominant-baseline="middle" text-anchor="start" font-size="12" fill="#E9FEE7" font-weight="bold" >207bar</text>
  </g>
  <text x="470" y="25" dominant-baseline="middle" text-anchor="middle" font-size="18" fill="#FFF" font-weight="700" >Atoll - Monday 17 Jun 2019 - 09:20am</text>
</svg>