<?xml version="1.0" encoding="UTF-8" standalone="no"?>
<svg
   xmlns:dc="http://purl.org/dc/elements/1.1/"
   xmlns:cc="http://creativecommons.org/ns#"
   xmlns:rdf="http://www.w3.org/1999/02/22-rdf-syntax-ns#"
   xmlns:svg="http://www.w3.org/2000/svg"
   xmlns="http://www.w3.org/2000/svg"
   xmlns:sodipodi="http://sodipodi.sourceforge.net/DTD/sodipodi-0.dtd"
   xmlns:inkscape="http://www.inkscape.org/namespaces/inkscape"
   inkscape:version="1.0 (6e3e5246a0, 2020-05-07)"
   sodipodi:docname="swirl.svg"
   viewBox="0 0 500 500.00001"
   height="500"
   width="500"
   id="svg907"
   version="1.1">
  <metadata
     id="metadata913">
    <rdf:RDF>
      <cc:Work
         rdf:about="">
        <dc:format>image/svg+xml</dc:format>
        <dc:type
           rdf:resource="http://purl.org/dc/dcmitype/StillImage" />
        <dc:title></dc:title>
      </cc:Work>
    </rdf:RDF>
  </metadata>
  <defs
     id="defs911" />
  <g
     transform="translate(42.761125,0.69883968)"
     id="g915"
     inkscape:label="Image"
     inkscape:groupmode="layer">
    <path
       id="path1486"
       d="M 189.29638,498.98577 C 108.074,492.85917 35.794159,448.64973 -6.5865547,379.17534 -7.911402,377.00355 -8.9498182,375.0915 -8.8941472,374.92637 -8.7611706,374.5319 163.14994,274.89619 163.69754,274.89619 c 0.23145,0 0.42082,0.38916 0.42082,0.86479 0,0.47565 0.29851,2.3298 0.66336,4.12035 2.41736,11.86353 9.44693,23.49078 19.0763,31.55308 16.39177,13.72421 38.14132,19.14389 60.73398,15.13407 16.15608,-2.86743 32.82219,-11.38488 45.10007,-23.04901 1.37366,-1.30497 2.59037,-2.27985 2.70385,-2.16637 0.30697,0.30702 -1.69282,3.47096 -4.8886,7.73438 -9.81721,13.09688 -21.62978,22.89827 -36.18298,30.02249 -14.4318,7.06484 -27.84705,10.16162 -44.01985,10.16162 -10.30667,0 -18.36234,-1.10552 -27.75293,-3.80876 -6.19142,-1.78228 -10.04696,-3.29876 -16.6004,-6.52936 -15.63178,-7.70587 -28.63485,-19.04788 -38.59997,-33.66909 -1.3061,-1.91636 -2.43438,-3.30531 -2.50729,-3.08656 -0.31508,0.94534 3.08898,9.26631 6.30378,15.40918 2.51353,4.80286 7.31244,12.09877 10.96876,16.6761 3.65079,4.57042 11.86831,12.7725 16.49808,16.46704 17.6053,14.04905 38.59764,22.56122 62.36145,25.28694 4.90297,0.56235 20.57152,0.55872 25.67825,-0.006 22.35142,-2.47156 42.87392,-9.96303 61.75795,-22.54391 8.77841,-5.84834 15.324,-11.39845 24.21804,-20.53487 5.68503,-5.83997 5.95002,-6.06537 4.90568,-4.17233 -1.45279,2.63331 -3.60259,5.80437 -7.25933,10.70775 -21.78586,29.21302 -54.40461,49.79984 -90.29202,56.9864 -11.49732,2.30232 -15.54063,2.66548 -29.68005,2.66548 -11.3439,0 -13.2667,-0.0803 -18.3416,-0.7651 -26.73447,-3.60804 -50.22998,-13.02867 -71.05702,-28.49069 -14.23575,-10.5686 -26.620254,-23.71426 -36.344493,-38.57818 -3.768084,-5.75969 -3.031241,-3.08309 1.829648,6.64619 13.58707,27.19511 35.348385,50.05648 62.552465,65.71449 4.85205,2.79272 16.00589,8.19485 21.00948,10.17549 27.29984,10.80655 56.63003,14.47827 86.20553,10.79172 35.11239,-4.37672 68.21849,-18.98082 96.72872,-42.66994 5.61587,-4.66621 18.92503,-18.04238 23.97317,-24.09383 2.26169,-2.71121 4.18879,-4.85284 4.28243,-4.75919 0.4297,0.42978 -7.48764,12.13803 -13.01297,19.24378 -25.73666,33.09838 -61.85255,57.58993 -101.96684,69.14785 -19.1991,5.53175 -35.67643,7.84624 -55.85852,7.84624 -12.97942,0 -21.72723,-0.70452 -33.51511,-2.69925 C 146.70401,442.04582 120.257,431.6262 97.243895,416.47163 74.461906,401.46927 55.109951,382.04688 39.841807,358.86061 c -1.902494,-2.88915 -3.529363,-5.25297 -3.615266,-5.25297 -0.344509,0 1.358029,3.78529 3.977929,8.84427 25.370251,48.9893 69.90143,85.97652 124.05623,103.04 15.1186,4.76366 29.98199,7.73081 46.96859,9.37625 7.3512,0.71206 24.08961,0.97877 32.09144,0.51135 46.86646,-2.73772 90.8622,-19.00165 128.75929,-47.59848 8.63016,-6.51226 15.98681,-12.97002 24.83683,-21.80194 8.70486,-8.68708 14.22932,-14.87772 20.58102,-23.06285 5.15119,-6.63806 5.29775,-6.13473 0.43362,1.48892 -19.31073,30.26597 -45.97036,56.81472 -76.48585,76.16767 -35.23885,22.34855 -74.78742,35.34959 -116.96674,38.45121 -5.28704,0.3888 -29.87647,0.3622 -35.18252,-0.038 z M 337.54235,324.09903 c -47.4062,-27.20388 -86.24139,-49.60654 -86.30045,-49.78371 -0.0591,-0.17717 0.70592,-0.93624 1.69993,-1.68681 0.994,-0.75057 3.01233,-2.56986 4.48516,-4.04286 15.60096,-15.60275 20.52856,-40.53625 12.6936,-64.22936 -0.72792,-2.20124 -2.50117,-6.40362 -3.94056,-9.33861 -4.18332,-8.53003 -8.80387,-14.98686 -15.51353,-21.67893 -10.02429,-9.998 -22.00354,-17.25088 -35.93579,-21.75746 -2.70197,-0.874 -4.91547,-1.70164 -4.91889,-1.83922 -0.019,-0.76352 10.27732,0.18235 17.16293,1.5767 9.00732,1.82397 16.02952,4.24539 24.68308,8.51127 19.78707,9.75427 35.43495,25.40395 45.1881,45.1933 7.22083,14.65119 10.33693,28.02316 10.33693,44.35842 0,15.59065 -3.0344,29.2142 -9.53753,42.82087 -1.17393,2.45621 -2.1344,4.61818 -2.1344,4.80438 0,0.51604 1.21522,-0.68299 3.31089,-3.26683 10.26334,-12.65401 17.67744,-28.47175 21.02622,-44.8587 1.79984,-8.80747 2.13736,-12.33014 2.1569,-22.51274 0.019,-9.86064 -0.25198,-13.24178 -1.69689,-21.17864 -7.85684,-43.15667 -38.58378,-79.79681 -81.3226,-96.97263 -8.17455,-3.28518 -19.49685,-6.6639 -26.59902,-7.93749 -0.68983,-0.12371 -1.35155,-0.382378 -1.47048,-0.574848 -0.31496,-0.50966 8.33632,-0.0578 14.96269,0.781378 45.81764,5.80305 86.27366,32.11215 109.93696,71.4935 10.85963,18.07296 17.5045,37.26795 20.44456,59.05804 0.6848,5.07549 0.76501,6.9985 0.76501,18.34371 0,11.34521 -0.0803,13.26822 -0.76501,18.34371 -2.37794,17.6238 -6.63046,31.77051 -14.57697,48.49276 l -2.47312,5.20428 1.35545,-1.49181 c 1.6359,-1.80048 7.49994,-10.57892 10.12759,-15.16097 16.85291,-29.38791 23.76211,-64.02347 19.6648,-98.57907 -4.54501,-38.33148 -22.28414,-74.40997 -50.50267,-102.71404 -20.58572,-20.648113 -45.88022,-36.162188 -74.33959,-45.595262 -9.59974,-3.181901 -21.48575,-6.08323 -30.6244,-7.475296 -5.80671,-0.884514 -1.7856,-1.279374 6.4545,-0.633809 22.0744,1.729405 41.1947,6.18386 61.4928,14.325969 6.48953,2.603121 19.05036,8.77521 25.17802,12.371871 41.30632,24.244917 71.99969,61.418507 88.10603,106.707557 3.3335,9.37338 6.63275,22.20131 8.40642,32.68515 1.9945,11.78923 2.69895,20.53805 2.69895,33.51896 0,5.35811 -0.1516,11.67741 -0.33688,14.04287 -2.10742,26.90583 -8.4102,50.21929 -20.04454,74.14331 -1.999,4.11063 -3.57321,7.53523 -3.49821,7.61023 0.19245,0.19248 2.6816,-3.35861 5.78074,-8.24689 29.39162,-46.3602 39.04547,-103.0362 26.89959,-157.92266 C 407.69445,141.3468 389.71738,106.52567 363.51159,77.284427 359.2398,72.517827 349.07969,62.422673 344.24513,58.141137 311.50064,29.142274 269.61319,9.2626744 225.47936,1.7754225 219.59387,0.77695676 209.4551,-0.59294932 207.95088,-0.59294932 h -0.81313 V 99.169002 198.93094 l -0.75034,-0.18114 c -0.41268,-0.0996 -2.2859,-0.72525 -4.16272,-1.39025 -10.93024,-3.87288 -23.79438,-3.75632 -36.01327,0.32633 -20.6458,6.89828 -37.49097,24.60274 -45.06144,47.36009 -3.15555,9.48577 -4.21922,16.42617 -4.21699,27.51557 0.002,8.78721 0.26055,11.44767 1.87716,19.29715 0.54246,2.63393 0.92126,4.96024 0.84178,5.16959 -0.19689,0.51862 -4.53918,-8.51799 -6.03967,-12.56896 -4.24071,-11.44891 -6.18613,-22.48015 -6.18613,-35.07756 0,-10.30786 1.10541,-18.36445 3.8083,-27.75612 1.78208,-6.19213 3.29839,-10.04812 6.52862,-16.6023 9.75316,-19.78935 25.40104,-35.43903 45.18811,-45.1933 6.55344,-3.2306 10.40898,-4.74708 16.6004,-6.52937 7.42027,-2.13601 17.5122,-3.80874 22.97907,-3.80874 1.22836,0 2.31692,-0.1352 2.41903,-0.30044 0.41819,-0.67673 -7.09319,-1.85114 -15.32577,-2.39621 -14.85643,-0.98362 -31.56443,1.90019 -46.43983,8.01554 -46.704845,19.2006 -76.861418,67.93735 -75.336418,121.75298 0.382287,13.49062 2.308812,25.25981 6.278414,38.35503 2.129294,7.02427 1.992774,6.45193 1.426977,5.98231 -0.272404,-0.2261 -1.526897,-2.52761 -2.787778,-5.11446 -7.517431,-15.42298 -12.052674,-30.5425 -14.416406,-48.06121 -0.684819,-5.07549 -0.765022,-6.9985 -0.765022,-18.34371 0,-14.14104 0.36308,-18.18482 2.665181,-29.68346 9.695267,-48.42635 42.983772,-89.1911 88.605832,-108.50569 15.71759,-6.65422 33.95586,-10.87861 50.14282,-11.614198 6.9915,-0.31772 6.77299,-0.640261 -1.03071,-1.521415 -4.97844,-0.56214 -23.50714,-0.555741 -28.6796,0.01042 -27.55229,3.013013 -51.54823,11.688463 -74.122141,26.798023 -8.681654,5.81094 -15.763066,11.63668 -24.03838,19.77593 -9.298099,9.14522 -15.493705,16.61788 -22.549146,27.19706 -16.090213,24.12622 -25.594665,50.33808 -29.20595,80.54556 -0.904668,7.56735 -1.274303,25.9578 -0.680463,33.85518 1.38822,18.46183 5.104249,35.93183 11.208439,52.69377 0.968635,2.65983 1.858463,5.21128 1.977402,5.66987 0.482676,1.86116 -0.947865,-0.62365 -4.320333,-7.50424 C 16.227347,313.984 9.8119117,290.15971 7.7178947,263.42516 c -0.434498,-5.54721 -0.434498,-22.53853 0,-28.08574 2.118518,-27.04734 8.5460833,-50.73018 20.1761183,-74.34046 14.216285,-28.86066 34.139424,-52.81137 60.01234,-72.14418 9.869232,-7.374515 19.351617,-13.152155 31.024967,-18.903574 23.60757,-11.631376 47.28769,-18.059675 74.33192,-20.17844 2.36519,-0.185295 5.55413,-0.336905 7.08653,-0.336905 1.53239,0 2.78618,-0.129685 2.78618,-0.288191 0,-0.911594 -17.02804,-1.593397 -27.54444,-1.102877 C 145.18578,49.463031 117.7709,56.587375 90.843427,70.068425 13.365348,108.85727 -34.665881,192.01836 -31.280136,281.51274 c 1.08921,28.79102 6.627353,54.94425 17.371947,82.03697 1.477416,3.72535 2.619066,6.84051 2.536998,6.92259 -0.415615,0.41566 -7.875603,-14.5 -11.423338,-22.84005 -9.466132,-22.25309 -15.837036,-46.41942 -18.471672,-70.06736 -1.208847,-10.85032 -1.494924,-16.2436 -1.494924,-28.18261 0,-15.39057 0.898311,-26.59905 3.288639,-41.03322 C -26.377603,129.27473 24.030386,61.127227 95.833833,25.425868 125.58865,10.631486 155.88259,2.3931938 190.46357,-0.30824142 c 6.66671,-0.52079768 27.01514,-0.52079768 33.68185,0 34.58098,2.70143522 64.87492,10.93972742 94.62973,25.73410942 71.80428,35.701765 122.20284,103.836252 135.30691,182.923192 1.18017,7.1225 2.29517,16.50282 2.83581,23.85684 0.428,5.82137 0.428,28.5314 0,34.35276 -2.08097,28.30605 -8.60591,55.41604 -19.5131,81.07359 -4.14209,9.74367 -12.46351,26.01732 -13.27341,25.95791 -0.21776,-0.0161 -39.18283,-22.28673 -86.58901,-49.49061 z"
       style="fill:#73c6ec;fill-opacity:1;stroke-width:0.333504" />
  </g>
</svg>
